<svg width="80" height="80" viewBox="0 0 80 80" fill="none" xmlns="http://www.w3.org/2000/svg">
<rect width="80" height="80" fill="white"/>
<path fill-rule="evenodd" clip-rule="evenodd" d="M41.2346 66.6668C55.2804 66.6668 66.6668 55.2804 66.6668 41.2346C66.6668 27.1888 55.2804 15.8024 41.2346 15.8024C27.1888 15.8024 15.8024 27.1888 15.8024 41.2346C15.8024 55.2804 27.1888 66.6668 41.2346 66.6668ZM41.2321 56.9504C49.9131 56.9504 56.9505 49.9131 56.9505 41.232C56.9505 32.551 49.9131 25.5137 41.2321 25.5137C32.551 25.5137 25.5137 32.551 25.5137 41.232C25.5137 49.9131 32.551 56.9504 41.2321 56.9504Z" fill="#705AA7"/>
<path fill-rule="evenodd" clip-rule="evenodd" d="M40.8231 66.2553C54.8689 66.2553 66.2553 54.8689 66.2553 40.8231C66.2553 26.7773 54.8689 15.3909 40.8231 15.3909C26.7773 15.3909 15.3909 26.7773 15.3909 40.8231C15.3909 54.8689 26.7773 66.2553 40.8231 66.2553ZM40.8204 56.5388C49.5015 56.5388 56.5388 49.5014 56.5388 40.8204C56.5388 32.1394 49.5015 25.102 40.8204 25.102C32.1394 25.102 25.1021 32.1394 25.1021 40.8204C25.1021 49.5014 32.1394 56.5388 40.8204 56.5388Z" fill="#00A4C7"/>
<path fill-rule="evenodd" clip-rule="evenodd" d="M40.4116 65.8437C54.4574 65.8437 65.8438 54.4573 65.8438 40.4115C65.8438 26.3656 54.4574 14.9792 40.4116 14.9792C26.3658 14.9792 14.9794 26.3656 14.9794 40.4115C14.9794 54.4573 26.3658 65.8437 40.4116 65.8437ZM40.409 56.1273C49.0901 56.1273 56.1274 49.0899 56.1274 40.4089C56.1274 31.7279 49.0901 24.6905 40.409 24.6905C31.728 24.6905 24.6906 31.7279 24.6906 40.4089C24.6906 49.0899 31.728 56.1273 40.409 56.1273Z" fill="#02A588"/>
<path fill-rule="evenodd" clip-rule="evenodd" d="M40 65.4323C54.0458 65.4323 65.4322 54.0459 65.4322 40.0001C65.4322 25.9543 54.0458 14.5679 40 14.5679C25.9541 14.5679 14.5677 25.9543 14.5677 40.0001C14.5677 54.0459 25.9541 65.4323 40 65.4323ZM39.9974 55.7157C48.6784 55.7157 55.7158 48.6784 55.7158 39.9973C55.7158 31.3163 48.6784 24.279 39.9974 24.279C31.3164 24.279 24.279 31.3163 24.279 39.9973C24.279 48.6784 31.3164 55.7157 39.9974 55.7157Z" fill="#FFB500"/>
<path fill-rule="evenodd" clip-rule="evenodd" d="M39.5886 65.0208C53.6344 65.0208 65.0208 53.6344 65.0208 39.5886C65.0208 25.5428 53.6344 14.1564 39.5886 14.1564C25.5428 14.1564 14.1564 25.5428 14.1564 39.5886C14.1564 53.6344 25.5428 65.0208 39.5886 65.0208ZM39.5861 55.3045C48.2671 55.3045 55.3045 48.2672 55.3045 39.5861C55.3045 30.9051 48.2671 23.8677 39.5861 23.8677C30.905 23.8677 23.8677 30.9051 23.8677 39.5861C23.8677 48.2672 30.905 55.3045 39.5861 55.3045Z" fill="#FF5123"/>
<path fill-rule="evenodd" clip-rule="evenodd" d="M39.1771 64.6095C53.2229 64.6095 64.6093 53.2231 64.6093 39.1772C64.6093 25.1314 53.2229 13.745 39.1771 13.745C25.1313 13.745 13.7449 25.1314 13.7449 39.1772C13.7449 53.2231 25.1313 64.6095 39.1771 64.6095ZM39.1745 54.8929C47.8556 54.8929 54.8929 47.8556 54.8929 39.1745C54.8929 30.4935 47.8556 23.4561 39.1745 23.4561C30.4935 23.4561 23.4562 30.4935 23.4562 39.1745C23.4562 47.8556 30.4935 54.8929 39.1745 54.8929Z" fill="#FF3969"/>
<path fill-rule="evenodd" clip-rule="evenodd" d="M38.7656 64.1978C52.8114 64.1978 64.1978 52.8114 64.1978 38.7656C64.1978 24.7198 52.8114 13.3334 38.7656 13.3334C24.7198 13.3334 13.3334 24.7198 13.3334 38.7656C13.3334 52.8114 24.7198 64.1978 38.7656 64.1978ZM38.763 54.4815C47.4441 54.4815 54.4814 47.4441 54.4814 38.7631C54.4814 30.0821 47.4441 23.0447 38.763 23.0447C30.082 23.0447 23.0446 30.0821 23.0446 38.7631C23.0446 47.4441 30.082 54.4815 38.763 54.4815Z" fill="black"/>
</svg>
