<svg width="80" height="80" viewBox="0 0 56 56" fill="none" xmlns="http://www.w3.org/2000/svg">
<path fill-rule="evenodd" clip-rule="evenodd" d="M29.2962 55.9996C44.0443 55.9996 56.0001 44.0439 56.0001 29.2957C56.0001 14.5475 44.0443 2.5918 29.2962 2.5918C14.548 2.5918 2.59229 14.5475 2.59229 29.2957C2.59229 44.0439 14.548 55.9996 29.2962 55.9996ZM29.2936 45.798C38.4087 45.798 45.798 38.4087 45.798 29.2936C45.798 20.1785 38.4087 12.7893 29.2936 12.7893C20.1785 12.7893 12.7893 20.1785 12.7893 29.2936C12.7893 38.4087 20.1785 45.798 29.2936 45.798Z" fill="#705AA7"/>
<path fill-rule="evenodd" clip-rule="evenodd" d="M28.8641 55.568C43.6122 55.568 55.568 43.6122 55.568 28.8641C55.568 14.1159 43.6122 2.16016 28.8641 2.16016C14.1159 2.16016 2.16016 14.1159 2.16016 28.8641C2.16016 43.6122 14.1159 55.568 28.8641 55.568ZM28.8616 45.3659C37.9767 45.3659 45.3659 37.9767 45.3659 28.8616C45.3659 19.7465 37.9767 12.3572 28.8616 12.3572C19.7465 12.3572 12.3572 19.7465 12.3572 28.8616C12.3572 37.9767 19.7465 45.3659 28.8616 45.3659Z" fill="#00A4C7"/>
<path fill-rule="evenodd" clip-rule="evenodd" d="M28.4319 55.1363C43.1801 55.1363 55.1358 43.1806 55.1358 28.4324C55.1358 13.6843 43.1801 1.72852 28.4319 1.72852C13.6838 1.72852 1.72803 13.6843 1.72803 28.4324C1.72803 43.1806 13.6838 55.1363 28.4319 55.1363ZM28.4296 44.9339C37.5447 44.9339 44.9339 37.5447 44.9339 28.4296C44.9339 19.3145 37.5447 11.9252 28.4296 11.9252C19.3145 11.9252 11.9252 19.3145 11.9252 28.4296C11.9252 37.5447 19.3145 44.9339 28.4296 44.9339Z" fill="#02A588"/>
<path fill-rule="evenodd" clip-rule="evenodd" d="M27.9998 54.7037C42.748 54.7037 54.7037 42.748 54.7037 27.9998C54.7037 13.2516 42.748 1.2959 27.9998 1.2959C13.2516 1.2959 1.2959 13.2516 1.2959 27.9998C1.2959 42.748 13.2516 54.7037 27.9998 54.7037ZM27.9975 44.5008C37.1126 44.5008 44.5019 37.1115 44.5019 27.9964C44.5019 18.8813 37.1126 11.4921 27.9975 11.4921C18.8824 11.4921 11.4932 18.8813 11.4932 27.9964C11.4932 37.1115 18.8824 44.5008 27.9975 44.5008Z" fill="#FFB500"/>
<path fill-rule="evenodd" clip-rule="evenodd" d="M27.5682 54.2721C42.3163 54.2721 54.2721 42.3163 54.2721 27.5682C54.2721 12.82 42.3163 0.864258 27.5682 0.864258C12.82 0.864258 0.864258 12.82 0.864258 27.5682C0.864258 42.3163 12.82 54.2721 27.5682 54.2721ZM27.5655 44.0698C36.6806 44.0698 44.0698 36.6806 44.0698 27.5655C44.0698 18.4504 36.6806 11.0611 27.5655 11.0611C18.4504 11.0611 11.0611 18.4504 11.0611 27.5655C11.0611 36.6806 18.4504 44.0698 27.5655 44.0698Z" fill="#FF5123"/>
<path fill-rule="evenodd" clip-rule="evenodd" d="M27.136 53.8394C41.8842 53.8394 53.8399 41.8837 53.8399 27.1355C53.8399 12.3874 41.8842 0.431641 27.136 0.431641C12.3879 0.431641 0.432129 12.3874 0.432129 27.1355C0.432129 41.8837 12.3879 53.8394 27.136 53.8394ZM27.1335 43.6367C36.2486 43.6367 43.6378 36.2475 43.6378 27.1324C43.6378 18.0173 36.2486 10.628 27.1335 10.628C18.0184 10.628 10.6291 18.0173 10.6291 27.1324C10.6291 36.2475 18.0184 43.6367 27.1335 43.6367Z" fill="#FF3969"/>
<path fill-rule="evenodd" clip-rule="evenodd" d="M26.7039 53.4078C41.4521 53.4078 53.4078 41.4521 53.4078 26.7039C53.4078 11.9557 41.4521 0 26.7039 0C11.9557 0 0 11.9557 0 26.7039C0 41.4521 11.9557 53.4078 26.7039 53.4078ZM26.7014 43.2058C35.8165 43.2058 43.2058 35.8165 43.2058 26.7014C43.2058 17.5863 35.8165 10.1971 26.7014 10.1971C17.5863 10.1971 10.1971 17.5863 10.1971 26.7014C10.1971 35.8165 17.5863 43.2058 26.7014 43.2058Z" fill="black"/>
</svg>
